<mxfile host="app.diagrams.net" modified="2024-04-08T16:27:09.197Z" agent="Mozilla/5.0 (Macintosh; Intel Mac OS X 10_15_7) AppleWebKit/537.36 (KHTML, like Gecko) Chrome/123.0.0.0 Safari/537.36" etag="_760OxXRf-gXDHmLvpPC" version="24.2.2" type="github">
  <diagram name="第 1 页" id="-ZGSn26ycv_NhK65gIa6">
    <mxGraphModel dx="2460" dy="1650" grid="0" gridSize="10" guides="1" tooltips="1" connect="1" arrows="1" fold="1" page="0" pageScale="1" pageWidth="827" pageHeight="1169" background="#ffffff" math="0" shadow="0">
      <root>
        <mxCell id="0" />
        <mxCell id="1" parent="0" />
        <mxCell id="Z39Dp9wX__Uqm4KgjtQT-8" value="" style="edgeStyle=orthogonalEdgeStyle;rounded=0;orthogonalLoop=1;jettySize=auto;html=1;exitX=0.25;exitY=1;exitDx=0;exitDy=0;entryX=0.25;entryY=0;entryDx=0;entryDy=0;" parent="1" source="Z39Dp9wX__Uqm4KgjtQT-2" target="Z39Dp9wX__Uqm4KgjtQT-3" edge="1">
          <mxGeometry relative="1" as="geometry" />
        </mxCell>
        <mxCell id="Z39Dp9wX__Uqm4KgjtQT-2" value="&lt;font style=&quot;font-size: 23px;&quot;&gt;申请许可&lt;/font&gt;" style="rounded=1;whiteSpace=wrap;html=1;" parent="1" vertex="1">
          <mxGeometry x="40" y="80" width="120" height="60" as="geometry" />
        </mxCell>
        <mxCell id="Z39Dp9wX__Uqm4KgjtQT-6" value="" style="edgeStyle=orthogonalEdgeStyle;rounded=0;orthogonalLoop=1;jettySize=auto;html=1;" parent="1" source="Z39Dp9wX__Uqm4KgjtQT-3" target="Z39Dp9wX__Uqm4KgjtQT-5" edge="1">
          <mxGeometry relative="1" as="geometry" />
        </mxCell>
        <mxCell id="Z39Dp9wX__Uqm4KgjtQT-9" value="&lt;font style=&quot;font-size: 18px;&quot;&gt;20+10&lt;br&gt;45+15&lt;/font&gt;" style="edgeLabel;html=1;align=center;verticalAlign=middle;resizable=0;points=[];" parent="Z39Dp9wX__Uqm4KgjtQT-6" vertex="1" connectable="0">
          <mxGeometry x="-0.1625" y="-2" relative="1" as="geometry">
            <mxPoint as="offset" />
          </mxGeometry>
        </mxCell>
        <mxCell id="Z39Dp9wX__Uqm4KgjtQT-3" value="&lt;font style=&quot;font-size: 23px;&quot;&gt;行政单位&lt;/font&gt;" style="whiteSpace=wrap;html=1;rounded=1;" parent="1" vertex="1">
          <mxGeometry x="40" y="220" width="120" height="60" as="geometry" />
        </mxCell>
        <mxCell id="Z39Dp9wX__Uqm4KgjtQT-93" value="" style="edgeStyle=orthogonalEdgeStyle;rounded=0;orthogonalLoop=1;jettySize=auto;html=1;" parent="1" source="Z39Dp9wX__Uqm4KgjtQT-5" target="Z39Dp9wX__Uqm4KgjtQT-92" edge="1">
          <mxGeometry relative="1" as="geometry" />
        </mxCell>
        <mxCell id="Z39Dp9wX__Uqm4KgjtQT-94" value="&lt;font style=&quot;font-size: 20px;&quot;&gt;10日内&lt;/font&gt;" style="edgeLabel;html=1;align=center;verticalAlign=middle;resizable=0;points=[];" parent="Z39Dp9wX__Uqm4KgjtQT-93" vertex="1" connectable="0">
          <mxGeometry x="-0.2121" y="-2" relative="1" as="geometry">
            <mxPoint as="offset" />
          </mxGeometry>
        </mxCell>
        <mxCell id="Z39Dp9wX__Uqm4KgjtQT-5" value="&lt;font style=&quot;font-size: 24px;&quot;&gt;做出是否批准决定&lt;/font&gt;" style="whiteSpace=wrap;html=1;rounded=1;" parent="1" vertex="1">
          <mxGeometry x="40" y="410" width="120" height="60" as="geometry" />
        </mxCell>
        <mxCell id="Z39Dp9wX__Uqm4KgjtQT-7" value="&lt;font style=&quot;font-size: 19px;&quot;&gt;5日&lt;/font&gt;" style="endArrow=classic;html=1;rounded=0;exitX=0.75;exitY=0;exitDx=0;exitDy=0;entryX=0.75;entryY=1;entryDx=0;entryDy=0;" parent="1" source="Z39Dp9wX__Uqm4KgjtQT-3" target="Z39Dp9wX__Uqm4KgjtQT-2" edge="1">
          <mxGeometry width="50" height="50" relative="1" as="geometry">
            <mxPoint x="410" y="190" as="sourcePoint" />
            <mxPoint x="460" y="140" as="targetPoint" />
          </mxGeometry>
        </mxCell>
        <mxCell id="Z39Dp9wX__Uqm4KgjtQT-11" value="&lt;span style=&quot;font-size: 23px;&quot;&gt;行政单位简易处罚&lt;/span&gt;" style="rounded=1;whiteSpace=wrap;html=1;" parent="1" vertex="1">
          <mxGeometry x="335" y="585" width="120" height="60" as="geometry" />
        </mxCell>
        <mxCell id="Z39Dp9wX__Uqm4KgjtQT-12" value="" style="edgeStyle=orthogonalEdgeStyle;rounded=0;orthogonalLoop=1;jettySize=auto;html=1;exitX=0.25;exitY=1;exitDx=0;exitDy=0;entryX=0.25;entryY=0;entryDx=0;entryDy=0;" parent="1" source="Z39Dp9wX__Uqm4KgjtQT-14" target="Z39Dp9wX__Uqm4KgjtQT-15" edge="1">
          <mxGeometry relative="1" as="geometry" />
        </mxCell>
        <mxCell id="Z39Dp9wX__Uqm4KgjtQT-96" value="" style="edgeStyle=orthogonalEdgeStyle;rounded=0;orthogonalLoop=1;jettySize=auto;html=1;" parent="1" source="Z39Dp9wX__Uqm4KgjtQT-14" target="Z39Dp9wX__Uqm4KgjtQT-95" edge="1">
          <mxGeometry relative="1" as="geometry" />
        </mxCell>
        <mxCell id="Z39Dp9wX__Uqm4KgjtQT-14" value="&lt;font style=&quot;font-size: 23px;&quot;&gt;纳税人&lt;/font&gt;" style="whiteSpace=wrap;html=1;rounded=1;" parent="1" vertex="1">
          <mxGeometry x="335" y="755" width="120" height="60" as="geometry" />
        </mxCell>
        <mxCell id="Z39Dp9wX__Uqm4KgjtQT-15" value="&lt;font style=&quot;font-size: 24px;&quot;&gt;行政部门&lt;/font&gt;" style="whiteSpace=wrap;html=1;rounded=1;" parent="1" vertex="1">
          <mxGeometry x="335" y="935" width="120" height="60" as="geometry" />
        </mxCell>
        <mxCell id="Z39Dp9wX__Uqm4KgjtQT-17" value="&lt;font style=&quot;font-size: 19px;&quot;&gt;90+90+上分副局长&lt;/font&gt;" style="endArrow=classic;html=1;rounded=0;exitX=0.5;exitY=1;exitDx=0;exitDy=0;entryX=0.5;entryY=0;entryDx=0;entryDy=0;" parent="1" source="Z39Dp9wX__Uqm4KgjtQT-11" target="Z39Dp9wX__Uqm4KgjtQT-14" edge="1">
          <mxGeometry width="50" height="50" relative="1" as="geometry">
            <mxPoint x="295" y="895" as="sourcePoint" />
            <mxPoint x="345" y="845" as="targetPoint" />
            <mxPoint as="offset" />
          </mxGeometry>
        </mxCell>
        <mxCell id="Z39Dp9wX__Uqm4KgjtQT-19" value="" style="endArrow=classic;html=1;rounded=0;exitX=0;exitY=1;exitDx=0;exitDy=0;entryX=1;entryY=1;entryDx=0;entryDy=0;" parent="1" source="Z39Dp9wX__Uqm4KgjtQT-15" target="Z39Dp9wX__Uqm4KgjtQT-15" edge="1">
          <mxGeometry width="50" height="50" relative="1" as="geometry">
            <mxPoint x="295" y="885" as="sourcePoint" />
            <mxPoint x="445" y="1005" as="targetPoint" />
            <Array as="points">
              <mxPoint x="345" y="1045" />
              <mxPoint x="395" y="1065" />
              <mxPoint x="455" y="1045" />
            </Array>
          </mxGeometry>
        </mxCell>
        <mxCell id="Z39Dp9wX__Uqm4KgjtQT-20" value="&lt;font style=&quot;font-size: 19px;&quot;&gt;15日内组织听证&lt;/font&gt;" style="text;html=1;strokeColor=none;fillColor=none;align=center;verticalAlign=middle;whiteSpace=wrap;rounded=0;" parent="1" vertex="1">
          <mxGeometry x="355" y="1075" width="110" height="40" as="geometry" />
        </mxCell>
        <mxCell id="Z39Dp9wX__Uqm4KgjtQT-26" value="&lt;font style=&quot;font-size: 19px;&quot;&gt;7日前&lt;br&gt;通知&lt;/font&gt;" style="text;html=1;strokeColor=none;fillColor=none;align=center;verticalAlign=middle;whiteSpace=wrap;rounded=0;" parent="1" vertex="1">
          <mxGeometry x="435" y="843" width="80" height="80" as="geometry" />
        </mxCell>
        <mxCell id="Z39Dp9wX__Uqm4KgjtQT-27" value="&lt;font style=&quot;font-size: 18px;&quot;&gt;5日内申请听证&lt;/font&gt;" style="text;html=1;strokeColor=none;fillColor=none;align=center;verticalAlign=middle;whiteSpace=wrap;rounded=0;" parent="1" vertex="1">
          <mxGeometry x="281" y="843" width="80" height="80" as="geometry" />
        </mxCell>
        <mxCell id="Z39Dp9wX__Uqm4KgjtQT-28" value="" style="endArrow=classic;html=1;rounded=0;exitX=0.75;exitY=0;exitDx=0;exitDy=0;entryX=0.75;entryY=1;entryDx=0;entryDy=0;" parent="1" source="Z39Dp9wX__Uqm4KgjtQT-15" target="Z39Dp9wX__Uqm4KgjtQT-14" edge="1">
          <mxGeometry width="50" height="50" relative="1" as="geometry">
            <mxPoint x="295" y="845" as="sourcePoint" />
            <mxPoint x="345" y="795" as="targetPoint" />
          </mxGeometry>
        </mxCell>
        <mxCell id="Z39Dp9wX__Uqm4KgjtQT-29" value="" style="edgeStyle=orthogonalEdgeStyle;rounded=0;orthogonalLoop=1;jettySize=auto;html=1;exitX=0.25;exitY=1;exitDx=0;exitDy=0;entryX=0.25;entryY=0;entryDx=0;entryDy=0;" parent="1" source="Z39Dp9wX__Uqm4KgjtQT-30" target="Z39Dp9wX__Uqm4KgjtQT-31" edge="1">
          <mxGeometry relative="1" as="geometry" />
        </mxCell>
        <mxCell id="Z39Dp9wX__Uqm4KgjtQT-30" value="&lt;font style=&quot;font-size: 23px;&quot;&gt;纳税人&lt;/font&gt;" style="whiteSpace=wrap;html=1;rounded=1;" parent="1" vertex="1">
          <mxGeometry x="281" y="80" width="120" height="60" as="geometry" />
        </mxCell>
        <mxCell id="Z39Dp9wX__Uqm4KgjtQT-31" value="&lt;font style=&quot;font-size: 24px;&quot;&gt;行政部门&lt;/font&gt;" style="whiteSpace=wrap;html=1;rounded=1;" parent="1" vertex="1">
          <mxGeometry x="281" y="260" width="120" height="60" as="geometry" />
        </mxCell>
        <mxCell id="Z39Dp9wX__Uqm4KgjtQT-32" value="" style="endArrow=classic;html=1;rounded=0;exitX=0;exitY=1;exitDx=0;exitDy=0;entryX=1;entryY=1;entryDx=0;entryDy=0;" parent="1" source="Z39Dp9wX__Uqm4KgjtQT-31" target="Z39Dp9wX__Uqm4KgjtQT-31" edge="1">
          <mxGeometry width="50" height="50" relative="1" as="geometry">
            <mxPoint x="241" y="210" as="sourcePoint" />
            <mxPoint x="391" y="330" as="targetPoint" />
            <Array as="points">
              <mxPoint x="291" y="370" />
              <mxPoint x="341" y="390" />
              <mxPoint x="401" y="370" />
            </Array>
          </mxGeometry>
        </mxCell>
        <mxCell id="Z39Dp9wX__Uqm4KgjtQT-33" value="&lt;font style=&quot;font-size: 19px;&quot;&gt;20日内组织&lt;br&gt;行政许可听证&lt;/font&gt;" style="text;html=1;strokeColor=none;fillColor=none;align=center;verticalAlign=middle;whiteSpace=wrap;rounded=0;" parent="1" vertex="1">
          <mxGeometry x="274" y="400" width="139" height="40" as="geometry" />
        </mxCell>
        <mxCell id="Z39Dp9wX__Uqm4KgjtQT-34" value="&lt;font style=&quot;font-size: 19px;&quot;&gt;7日前&lt;br&gt;通知&lt;/font&gt;" style="text;html=1;strokeColor=none;fillColor=none;align=center;verticalAlign=middle;whiteSpace=wrap;rounded=0;" parent="1" vertex="1">
          <mxGeometry x="381" y="168" width="80" height="80" as="geometry" />
        </mxCell>
        <mxCell id="Z39Dp9wX__Uqm4KgjtQT-35" value="&lt;font style=&quot;font-size: 18px;&quot;&gt;5日内申请听证&lt;/font&gt;" style="text;html=1;strokeColor=none;fillColor=none;align=center;verticalAlign=middle;whiteSpace=wrap;rounded=0;" parent="1" vertex="1">
          <mxGeometry x="227" y="168" width="80" height="80" as="geometry" />
        </mxCell>
        <mxCell id="Z39Dp9wX__Uqm4KgjtQT-36" value="" style="endArrow=classic;html=1;rounded=0;exitX=0.75;exitY=0;exitDx=0;exitDy=0;entryX=0.75;entryY=1;entryDx=0;entryDy=0;" parent="1" source="Z39Dp9wX__Uqm4KgjtQT-31" target="Z39Dp9wX__Uqm4KgjtQT-30" edge="1">
          <mxGeometry width="50" height="50" relative="1" as="geometry">
            <mxPoint x="241" y="170" as="sourcePoint" />
            <mxPoint x="291" y="120" as="targetPoint" />
          </mxGeometry>
        </mxCell>
        <mxCell id="Z39Dp9wX__Uqm4KgjtQT-40" value="" style="edgeStyle=orthogonalEdgeStyle;rounded=0;orthogonalLoop=1;jettySize=auto;html=1;" parent="1" source="Z39Dp9wX__Uqm4KgjtQT-38" target="Z39Dp9wX__Uqm4KgjtQT-39" edge="1">
          <mxGeometry relative="1" as="geometry" />
        </mxCell>
        <mxCell id="Z39Dp9wX__Uqm4KgjtQT-38" value="" style="shape=actor;whiteSpace=wrap;html=1;" parent="1" vertex="1">
          <mxGeometry x="1000" y="170" width="40" height="60" as="geometry" />
        </mxCell>
        <mxCell id="Z39Dp9wX__Uqm4KgjtQT-39" value="&lt;font style=&quot;font-size: 20px;&quot;&gt;复议机关&lt;/font&gt;" style="rounded=1;whiteSpace=wrap;html=1;" parent="1" vertex="1">
          <mxGeometry x="960" y="310" width="120" height="60" as="geometry" />
        </mxCell>
        <mxCell id="Z39Dp9wX__Uqm4KgjtQT-41" value="&lt;font style=&quot;font-size: 18px;&quot;&gt;60日内&lt;/font&gt;" style="text;html=1;strokeColor=none;fillColor=none;align=center;verticalAlign=middle;whiteSpace=wrap;rounded=0;" parent="1" vertex="1">
          <mxGeometry x="1030" y="250" width="60" height="30" as="geometry" />
        </mxCell>
        <mxCell id="Z39Dp9wX__Uqm4KgjtQT-42" value="&lt;font style=&quot;font-size: 26px;&quot;&gt;复议&lt;/font&gt;" style="rounded=0;whiteSpace=wrap;html=1;" parent="1" vertex="1">
          <mxGeometry x="880" y="40" width="120" height="60" as="geometry" />
        </mxCell>
        <mxCell id="Z39Dp9wX__Uqm4KgjtQT-43" value="" style="endArrow=classic;html=1;rounded=0;exitX=0;exitY=1;exitDx=0;exitDy=0;entryX=1;entryY=1;entryDx=0;entryDy=0;" parent="1" edge="1">
          <mxGeometry width="50" height="50" relative="1" as="geometry">
            <mxPoint x="960" y="380" as="sourcePoint" />
            <mxPoint x="1080" y="380" as="targetPoint" />
            <Array as="points">
              <mxPoint x="970" y="430" />
              <mxPoint x="1020" y="450" />
              <mxPoint x="1080" y="430" />
            </Array>
          </mxGeometry>
        </mxCell>
        <mxCell id="Z39Dp9wX__Uqm4KgjtQT-44" value="&lt;font style=&quot;font-size: 19px;&quot;&gt;5日是否受理&lt;/font&gt;" style="text;html=1;strokeColor=none;fillColor=none;align=center;verticalAlign=middle;whiteSpace=wrap;rounded=0;" parent="1" vertex="1">
          <mxGeometry x="971" y="400" width="110" height="40" as="geometry" />
        </mxCell>
        <mxCell id="Z39Dp9wX__Uqm4KgjtQT-45" value="&lt;font style=&quot;font-size: 20px;&quot;&gt;被申请人（税务局）&lt;/font&gt;" style="rounded=1;whiteSpace=wrap;html=1;" parent="1" vertex="1">
          <mxGeometry x="960" y="540" width="120" height="60" as="geometry" />
        </mxCell>
        <mxCell id="Z39Dp9wX__Uqm4KgjtQT-46" value="" style="endArrow=classic;html=1;rounded=0;entryX=0.5;entryY=0;entryDx=0;entryDy=0;" parent="1" target="Z39Dp9wX__Uqm4KgjtQT-45" edge="1">
          <mxGeometry width="50" height="50" relative="1" as="geometry">
            <mxPoint x="1020" y="460" as="sourcePoint" />
            <mxPoint x="1400" y="360" as="targetPoint" />
          </mxGeometry>
        </mxCell>
        <mxCell id="Z39Dp9wX__Uqm4KgjtQT-47" value="&lt;font style=&quot;font-size: 17px;&quot;&gt;7日内发送&lt;br&gt;给被申请人&lt;/font&gt;" style="text;html=1;strokeColor=none;fillColor=none;align=center;verticalAlign=middle;whiteSpace=wrap;rounded=0;" parent="1" vertex="1">
          <mxGeometry x="1025" y="480" width="100" height="30" as="geometry" />
        </mxCell>
        <mxCell id="Z39Dp9wX__Uqm4KgjtQT-48" value="&lt;font style=&quot;font-size: 19px;&quot;&gt;10日内&lt;/font&gt;" style="endArrow=classic;html=1;rounded=0;exitX=0;exitY=0.5;exitDx=0;exitDy=0;entryX=0;entryY=0.5;entryDx=0;entryDy=0;" parent="1" source="Z39Dp9wX__Uqm4KgjtQT-45" target="Z39Dp9wX__Uqm4KgjtQT-39" edge="1">
          <mxGeometry width="50" height="50" relative="1" as="geometry">
            <mxPoint x="1300" y="390" as="sourcePoint" />
            <mxPoint x="1350" y="340" as="targetPoint" />
            <Array as="points">
              <mxPoint x="910" y="570" />
              <mxPoint x="910" y="340" />
            </Array>
          </mxGeometry>
        </mxCell>
        <mxCell id="Z39Dp9wX__Uqm4KgjtQT-50" value="&lt;font style=&quot;font-size: 20px;&quot;&gt;60日内&lt;/font&gt;" style="endArrow=classic;html=1;rounded=0;exitX=0;exitY=0;exitDx=0;exitDy=0;entryX=0.1;entryY=0.5;entryDx=0;entryDy=0;entryPerimeter=0;" parent="1" source="Z39Dp9wX__Uqm4KgjtQT-39" target="Z39Dp9wX__Uqm4KgjtQT-38" edge="1">
          <mxGeometry x="-0.0026" width="50" height="50" relative="1" as="geometry">
            <mxPoint x="1300" y="370" as="sourcePoint" />
            <mxPoint x="1350" y="320" as="targetPoint" />
            <Array as="points">
              <mxPoint x="910" y="310" />
              <mxPoint x="910" y="200" />
            </Array>
            <mxPoint as="offset" />
          </mxGeometry>
        </mxCell>
        <mxCell id="Z39Dp9wX__Uqm4KgjtQT-57" value="&lt;font style=&quot;font-size: 20px;&quot;&gt;直接诉讼6个月&lt;/font&gt;" style="endArrow=classic;html=1;rounded=0;exitX=1.017;exitY=0.967;exitDx=0;exitDy=0;exitPerimeter=0;entryX=-0.081;entryY=0.867;entryDx=0;entryDy=0;entryPerimeter=0;" parent="1" source="Z39Dp9wX__Uqm4KgjtQT-38" target="Z39Dp9wX__Uqm4KgjtQT-59" edge="1">
          <mxGeometry width="50" height="50" relative="1" as="geometry">
            <mxPoint x="1300" y="370" as="sourcePoint" />
            <mxPoint x="1460" y="228" as="targetPoint" />
          </mxGeometry>
        </mxCell>
        <mxCell id="Z39Dp9wX__Uqm4KgjtQT-58" value="&lt;font style=&quot;font-size: 19px;&quot;&gt;收到复议申请书15日内&lt;/font&gt;" style="endArrow=classic;html=1;rounded=0;exitX=0.9;exitY=0.5;exitDx=0;exitDy=0;exitPerimeter=0;entryX=-0.022;entryY=0.395;entryDx=0;entryDy=0;entryPerimeter=0;" parent="1" source="Z39Dp9wX__Uqm4KgjtQT-38" target="Z39Dp9wX__Uqm4KgjtQT-59" edge="1">
          <mxGeometry x="-0.0023" width="50" height="50" relative="1" as="geometry">
            <mxPoint x="1300" y="370" as="sourcePoint" />
            <mxPoint x="1280" y="190" as="targetPoint" />
            <mxPoint as="offset" />
          </mxGeometry>
        </mxCell>
        <mxCell id="Z39Dp9wX__Uqm4KgjtQT-74" value="" style="edgeStyle=orthogonalEdgeStyle;rounded=0;orthogonalLoop=1;jettySize=auto;html=1;" parent="1" source="Z39Dp9wX__Uqm4KgjtQT-59" target="Z39Dp9wX__Uqm4KgjtQT-73" edge="1">
          <mxGeometry relative="1" as="geometry" />
        </mxCell>
        <mxCell id="Z39Dp9wX__Uqm4KgjtQT-75" value="&lt;font style=&quot;font-size: 20px;&quot;&gt;6个月内&lt;/font&gt;" style="edgeLabel;html=1;align=center;verticalAlign=middle;resizable=0;points=[];" parent="Z39Dp9wX__Uqm4KgjtQT-74" vertex="1" connectable="0">
          <mxGeometry x="-0.0368" y="-2" relative="1" as="geometry">
            <mxPoint as="offset" />
          </mxGeometry>
        </mxCell>
        <mxCell id="Z39Dp9wX__Uqm4KgjtQT-59" value="&lt;font style=&quot;font-size: 23px;&quot;&gt;法院&lt;/font&gt;" style="shape=loopLimit;whiteSpace=wrap;html=1;size=0;" parent="1" vertex="1">
          <mxGeometry x="1559" y="170" width="90" height="70" as="geometry" />
        </mxCell>
        <mxCell id="Z39Dp9wX__Uqm4KgjtQT-60" value="&lt;font style=&quot;font-size: 26px;&quot;&gt;诉讼&lt;/font&gt;" style="rounded=0;whiteSpace=wrap;html=1;" parent="1" vertex="1">
          <mxGeometry x="1420" y="40" width="120" height="60" as="geometry" />
        </mxCell>
        <mxCell id="Z39Dp9wX__Uqm4KgjtQT-63" value="" style="edgeStyle=elbowEdgeStyle;elbow=horizontal;endArrow=classic;html=1;curved=0;rounded=0;endSize=8;startSize=8;exitX=0;exitY=0;exitDx=0;exitDy=0;entryX=1;entryY=0;entryDx=0;entryDy=0;" parent="1" source="Z39Dp9wX__Uqm4KgjtQT-59" target="Z39Dp9wX__Uqm4KgjtQT-59" edge="1">
          <mxGeometry width="50" height="50" relative="1" as="geometry">
            <mxPoint x="1539" y="340" as="sourcePoint" />
            <mxPoint x="1589" y="290" as="targetPoint" />
            <Array as="points">
              <mxPoint x="1579" y="130" />
              <mxPoint x="1604" y="110" />
            </Array>
          </mxGeometry>
        </mxCell>
        <mxCell id="Z39Dp9wX__Uqm4KgjtQT-65" value="&lt;font style=&quot;font-size: 19px;&quot;&gt;7日内&lt;br&gt;是否立案&lt;/font&gt;" style="text;html=1;strokeColor=none;fillColor=none;align=center;verticalAlign=middle;whiteSpace=wrap;rounded=0;" parent="1" vertex="1">
          <mxGeometry x="1559" y="80" width="90" height="30" as="geometry" />
        </mxCell>
        <mxCell id="Z39Dp9wX__Uqm4KgjtQT-66" value="" style="edgeStyle=orthogonalEdgeStyle;rounded=0;orthogonalLoop=1;jettySize=auto;html=1;exitX=0.25;exitY=1;exitDx=0;exitDy=0;entryX=0.25;entryY=0;entryDx=0;entryDy=0;" parent="1" target="Z39Dp9wX__Uqm4KgjtQT-67" edge="1">
          <mxGeometry relative="1" as="geometry">
            <mxPoint x="1574" y="250" as="sourcePoint" />
          </mxGeometry>
        </mxCell>
        <mxCell id="Z39Dp9wX__Uqm4KgjtQT-67" value="&lt;font style=&quot;font-size: 23px;&quot;&gt;被告&lt;br&gt;（税务局）&lt;/font&gt;" style="whiteSpace=wrap;html=1;rounded=1;" parent="1" vertex="1">
          <mxGeometry x="1544" y="370" width="120" height="60" as="geometry" />
        </mxCell>
        <mxCell id="Z39Dp9wX__Uqm4KgjtQT-68" value="&lt;font style=&quot;font-size: 19px;&quot;&gt;15日内提交证据，提出答辩状&lt;br&gt;&lt;/font&gt;" style="text;html=1;strokeColor=none;fillColor=none;align=center;verticalAlign=middle;whiteSpace=wrap;rounded=0;" parent="1" vertex="1">
          <mxGeometry x="1644" y="278" width="80" height="80" as="geometry" />
        </mxCell>
        <mxCell id="Z39Dp9wX__Uqm4KgjtQT-69" value="&lt;font style=&quot;font-size: 18px;&quot;&gt;5日内诉状副本&lt;/font&gt;" style="text;html=1;strokeColor=none;fillColor=none;align=center;verticalAlign=middle;whiteSpace=wrap;rounded=0;" parent="1" vertex="1">
          <mxGeometry x="1490" y="278" width="80" height="80" as="geometry" />
        </mxCell>
        <mxCell id="Z39Dp9wX__Uqm4KgjtQT-70" value="" style="endArrow=classic;html=1;rounded=0;exitX=0.75;exitY=0;exitDx=0;exitDy=0;entryX=0.75;entryY=1;entryDx=0;entryDy=0;" parent="1" source="Z39Dp9wX__Uqm4KgjtQT-67" edge="1">
          <mxGeometry width="50" height="50" relative="1" as="geometry">
            <mxPoint x="1504" y="280" as="sourcePoint" />
            <mxPoint x="1634" y="250" as="targetPoint" />
          </mxGeometry>
        </mxCell>
        <mxCell id="Z39Dp9wX__Uqm4KgjtQT-71" value="" style="endArrow=classic;html=1;rounded=0;" parent="1" edge="1">
          <mxGeometry width="50" height="50" relative="1" as="geometry">
            <mxPoint x="1550" y="150" as="sourcePoint" />
            <mxPoint x="1030" y="150" as="targetPoint" />
          </mxGeometry>
        </mxCell>
        <mxCell id="Z39Dp9wX__Uqm4KgjtQT-72" value="&lt;font style=&quot;font-size: 20px;&quot;&gt;5日内将答辩状发送给原发&lt;/font&gt;" style="edgeLabel;html=1;align=center;verticalAlign=middle;resizable=0;points=[];" parent="Z39Dp9wX__Uqm4KgjtQT-71" vertex="1" connectable="0">
          <mxGeometry x="0.0927" y="-3" relative="1" as="geometry">
            <mxPoint as="offset" />
          </mxGeometry>
        </mxCell>
        <mxCell id="Z39Dp9wX__Uqm4KgjtQT-73" value="&lt;font style=&quot;font-size: 21px;&quot;&gt;一审&lt;/font&gt;" style="rounded=0;whiteSpace=wrap;html=1;" parent="1" vertex="1">
          <mxGeometry x="1859" y="178" width="100" height="55" as="geometry" />
        </mxCell>
        <mxCell id="Z39Dp9wX__Uqm4KgjtQT-86" value="" style="edgeStyle=orthogonalEdgeStyle;rounded=0;orthogonalLoop=1;jettySize=auto;html=1;" parent="1" source="Z39Dp9wX__Uqm4KgjtQT-77" target="Z39Dp9wX__Uqm4KgjtQT-85" edge="1">
          <mxGeometry relative="1" as="geometry" />
        </mxCell>
        <mxCell id="Z39Dp9wX__Uqm4KgjtQT-77" value="&lt;font style=&quot;font-size: 21px;&quot;&gt;二审&lt;/font&gt;" style="rounded=0;whiteSpace=wrap;html=1;" parent="1" vertex="1">
          <mxGeometry x="1859" y="345" width="100" height="55" as="geometry" />
        </mxCell>
        <mxCell id="Z39Dp9wX__Uqm4KgjtQT-78" value="" style="endArrow=classic;html=1;rounded=0;exitX=0.25;exitY=1;exitDx=0;exitDy=0;entryX=0.25;entryY=0;entryDx=0;entryDy=0;" parent="1" source="Z39Dp9wX__Uqm4KgjtQT-73" target="Z39Dp9wX__Uqm4KgjtQT-77" edge="1">
          <mxGeometry width="50" height="50" relative="1" as="geometry">
            <mxPoint x="1719" y="430" as="sourcePoint" />
            <mxPoint x="1769" y="380" as="targetPoint" />
          </mxGeometry>
        </mxCell>
        <mxCell id="Z39Dp9wX__Uqm4KgjtQT-80" value="&lt;font style=&quot;font-size: 20px;&quot;&gt;判决书送达15日&lt;/font&gt;" style="text;html=1;strokeColor=none;fillColor=none;align=center;verticalAlign=middle;whiteSpace=wrap;rounded=0;" parent="1" vertex="1">
          <mxGeometry x="1779" y="265" width="90" height="55" as="geometry" />
        </mxCell>
        <mxCell id="Z39Dp9wX__Uqm4KgjtQT-83" value="" style="endArrow=classic;html=1;rounded=0;exitX=0.75;exitY=1;exitDx=0;exitDy=0;entryX=0.75;entryY=0;entryDx=0;entryDy=0;" parent="1" source="Z39Dp9wX__Uqm4KgjtQT-73" target="Z39Dp9wX__Uqm4KgjtQT-77" edge="1">
          <mxGeometry width="50" height="50" relative="1" as="geometry">
            <mxPoint x="1719" y="400" as="sourcePoint" />
            <mxPoint x="1769" y="350" as="targetPoint" />
          </mxGeometry>
        </mxCell>
        <mxCell id="Z39Dp9wX__Uqm4KgjtQT-84" value="&lt;font style=&quot;font-size: 20px;&quot;&gt;裁定书送达10日&lt;/font&gt;" style="text;html=1;strokeColor=none;fillColor=none;align=center;verticalAlign=middle;whiteSpace=wrap;rounded=0;" parent="1" vertex="1">
          <mxGeometry x="1959" y="265" width="90" height="55" as="geometry" />
        </mxCell>
        <mxCell id="Z39Dp9wX__Uqm4KgjtQT-89" value="" style="edgeStyle=orthogonalEdgeStyle;rounded=0;orthogonalLoop=1;jettySize=auto;html=1;" parent="1" source="Z39Dp9wX__Uqm4KgjtQT-85" target="Z39Dp9wX__Uqm4KgjtQT-88" edge="1">
          <mxGeometry relative="1" as="geometry" />
        </mxCell>
        <mxCell id="Z39Dp9wX__Uqm4KgjtQT-85" value="&lt;font style=&quot;font-size: 21px;&quot;&gt;终审&lt;/font&gt;" style="rounded=0;whiteSpace=wrap;html=1;" parent="1" vertex="1">
          <mxGeometry x="1859" y="490" width="100" height="55" as="geometry" />
        </mxCell>
        <mxCell id="Z39Dp9wX__Uqm4KgjtQT-87" value="&lt;font style=&quot;font-size: 20px;&quot;&gt;3个月内终审&lt;/font&gt;" style="text;html=1;strokeColor=none;fillColor=none;align=center;verticalAlign=middle;whiteSpace=wrap;rounded=0;" parent="1" vertex="1">
          <mxGeometry x="1909" y="418" width="90" height="55" as="geometry" />
        </mxCell>
        <mxCell id="Z39Dp9wX__Uqm4KgjtQT-88" value="&lt;font style=&quot;font-size: 21px;&quot;&gt;赔偿&lt;/font&gt;" style="rounded=0;whiteSpace=wrap;html=1;" parent="1" vertex="1">
          <mxGeometry x="1859" y="620" width="100" height="55" as="geometry" />
        </mxCell>
        <mxCell id="Z39Dp9wX__Uqm4KgjtQT-90" value="&lt;font style=&quot;font-size: 20px;&quot;&gt;2个月内&lt;/font&gt;" style="text;html=1;strokeColor=none;fillColor=none;align=center;verticalAlign=middle;whiteSpace=wrap;rounded=0;" parent="1" vertex="1">
          <mxGeometry x="1909" y="557" width="90" height="55" as="geometry" />
        </mxCell>
        <mxCell id="Z39Dp9wX__Uqm4KgjtQT-92" value="&lt;font style=&quot;font-size: 18px;&quot;&gt;向申请人颁发、送达行政许可证件&lt;/font&gt;" style="whiteSpace=wrap;html=1;rounded=1;" parent="1" vertex="1">
          <mxGeometry x="40" y="580" width="120" height="60" as="geometry" />
        </mxCell>
        <mxCell id="Z39Dp9wX__Uqm4KgjtQT-95" value="&lt;font style=&quot;font-size: 20px;&quot;&gt;到银行缴款&lt;/font&gt;" style="rounded=1;whiteSpace=wrap;html=1;" parent="1" vertex="1">
          <mxGeometry x="670" y="755" width="120" height="60" as="geometry" />
        </mxCell>
        <mxCell id="Z39Dp9wX__Uqm4KgjtQT-98" value="&lt;font style=&quot;font-size: 20px;&quot;&gt;15日内&lt;/font&gt;" style="text;html=1;strokeColor=none;fillColor=none;align=center;verticalAlign=middle;whiteSpace=wrap;rounded=0;" parent="1" vertex="1">
          <mxGeometry x="500" y="755" width="130" height="30" as="geometry" />
        </mxCell>
        <mxCell id="Z39Dp9wX__Uqm4KgjtQT-100" value="&lt;font style=&quot;font-size: 20px;&quot;&gt;30日内&lt;br&gt;依法处理&lt;/font&gt;" style="rounded=1;whiteSpace=wrap;html=1;" parent="1" vertex="1">
          <mxGeometry x="1241" y="278" width="120" height="60" as="geometry" />
        </mxCell>
        <mxCell id="Z39Dp9wX__Uqm4KgjtQT-103" value="" style="edgeStyle=orthogonalEdgeStyle;rounded=0;orthogonalLoop=1;jettySize=auto;html=1;" parent="1" source="Z39Dp9wX__Uqm4KgjtQT-101" target="Z39Dp9wX__Uqm4KgjtQT-102" edge="1">
          <mxGeometry relative="1" as="geometry" />
        </mxCell>
        <mxCell id="Z39Dp9wX__Uqm4KgjtQT-101" value="&lt;font style=&quot;font-size: 20px;&quot;&gt;7日内&lt;br&gt;逐级转送&lt;/font&gt;" style="rounded=1;whiteSpace=wrap;html=1;" parent="1" vertex="1">
          <mxGeometry x="1241" y="390" width="120" height="60" as="geometry" />
        </mxCell>
        <mxCell id="Z39Dp9wX__Uqm4KgjtQT-102" value="&lt;font style=&quot;font-size: 20px;&quot;&gt;60日内依法处理&lt;/font&gt;" style="whiteSpace=wrap;html=1;rounded=1;" parent="1" vertex="1">
          <mxGeometry x="1241" y="497" width="120" height="60" as="geometry" />
        </mxCell>
        <mxCell id="Z39Dp9wX__Uqm4KgjtQT-104" value="" style="endArrow=classic;html=1;rounded=0;exitX=1;exitY=0.5;exitDx=0;exitDy=0;entryX=0;entryY=0.5;entryDx=0;entryDy=0;" parent="1" source="Z39Dp9wX__Uqm4KgjtQT-39" target="Z39Dp9wX__Uqm4KgjtQT-100" edge="1">
          <mxGeometry width="50" height="50" relative="1" as="geometry">
            <mxPoint x="1290" y="540" as="sourcePoint" />
            <mxPoint x="1340" y="490" as="targetPoint" />
            <Array as="points">
              <mxPoint x="1130" y="340" />
              <mxPoint x="1130" y="308" />
            </Array>
          </mxGeometry>
        </mxCell>
        <mxCell id="Z39Dp9wX__Uqm4KgjtQT-106" value="&lt;font style=&quot;font-size: 20px;&quot;&gt;有权&lt;/font&gt;" style="edgeLabel;html=1;align=center;verticalAlign=middle;resizable=0;points=[];" parent="Z39Dp9wX__Uqm4KgjtQT-104" vertex="1" connectable="0">
          <mxGeometry x="0.3616" y="-4" relative="1" as="geometry">
            <mxPoint as="offset" />
          </mxGeometry>
        </mxCell>
        <mxCell id="Z39Dp9wX__Uqm4KgjtQT-105" value="" style="endArrow=classic;html=1;rounded=0;exitX=1;exitY=0.5;exitDx=0;exitDy=0;entryX=0;entryY=0.5;entryDx=0;entryDy=0;" parent="1" source="Z39Dp9wX__Uqm4KgjtQT-39" target="Z39Dp9wX__Uqm4KgjtQT-101" edge="1">
          <mxGeometry width="50" height="50" relative="1" as="geometry">
            <mxPoint x="1290" y="540" as="sourcePoint" />
            <mxPoint x="1340" y="490" as="targetPoint" />
            <Array as="points">
              <mxPoint x="1130" y="340" />
              <mxPoint x="1130" y="417" />
            </Array>
          </mxGeometry>
        </mxCell>
        <mxCell id="Z39Dp9wX__Uqm4KgjtQT-107" value="&lt;font style=&quot;font-size: 20px;&quot;&gt;无权&lt;/font&gt;" style="edgeLabel;html=1;align=center;verticalAlign=middle;resizable=0;points=[];" parent="Z39Dp9wX__Uqm4KgjtQT-105" vertex="1" connectable="0">
          <mxGeometry x="0.583" relative="1" as="geometry">
            <mxPoint as="offset" />
          </mxGeometry>
        </mxCell>
      </root>
    </mxGraphModel>
  </diagram>
</mxfile>
